# xmcd
#
# Track frame offsets:
#       300
#       27152
#       57816
#       93313
#       132851
#       169442
#       203403
#       228108
#       260072
#       292365
#
# Disc length: 4382 seconds
#
# Revision: 0
# Processed by: cddbd v1.5.2PL0 Copyright (c) Steve Scherf et al.
# Submitted via: WaveLab 4.01
#
DISCID=8e111a0a
DTITLE=Promo Only CD Pool - UK Club Beats Jan 2007 CD A
DYEAR=2007
DGENRE=Electronic
TTITLE0=The Star Alliance ft. Sheila Ferguson - He's a Runner (Extended Version)
TTITLE1=Mind Electric - Dirty Cash (Dirty South Remix)
TTITLE2=China White Project - When The Morning Comes (Original Mix)
TTITLE3=Diddy - Give Me Love (Andy Allder vs. Club Junkies Mix)
TTITLE4=Cafe Groove - Why U Wanna Do Me Wrong (Soul Avengerz Vocal Mix)
TTITLE5=Eartha Kitt - Where Is My Man (7th Heaven Mix)
TTITLE6=Rilod - Thriller (BB Law Club Mix)
TTITLE7=Karen Louise - Falling (7th Heaven Mix)
TTITLE8=Disko Junkie - Hold Ya Head Up (Original Mix)
TTITLE9=YomTrax - The Sound (Extended Mix)
EXTD=
EXTT0=
EXTT1=
EXTT2=
EXTT3=
EXTT4=
EXTT5=
EXTT6=
EXTT7=
EXTT8=
EXTT9=
PLAYORDER=
